<svg xmlns="http://www.w3.org/2000/svg" viewBox="0 0 64 64" role="img" aria-label="ЗакупкиПро">
  <g fill="#0F4C3A">
    <circle cx="32" cy="32" r="7"/>
    <path d="M29 6h6l1.5 6.5a20.8 20.8 0 0 1 4.8 2l5.8-3.3 4.2 4.2-3.3 5.8a20.8 20.8 0 0 1 2 4.8L58 29v6l-6.5 1.5a20.8 20.8 0 0 1-2 4.8l3.3 5.8-4.2 4.2-5.8-3.3a20.8 20.8 0 0 1-4.8 2L35 58h-6l-1.5-6.5a20.8 20.8 0 0 1-4.8-2l-5.8 3.3-4.2-4.2 3.3-5.8a20.8 20.8 0 0 1-2-4.8L6 35v-6l6.5-1.5a20.8 20.8 0 0 1 2-4.8l-3.3-5.8 4.2-4.2 5.8 3.3a20.8 20.8 0 0 1 4.8-2L29 6Zm3 14c-6.6 0-12 5.4-12 12s5.4 12 12 12 12-5.4 12-12-5.4-12-12-12Z"/>
  </g>
</svg>
