<svg xmlns="http://www.w3.org/2000/svg" viewBox="0 0 512 512" role="img" aria-label="ПодборОборудования">
  <defs>
    <path id="tooth" d="M238 8h36l14 44h-64z" />
  </defs>

  <g fill="#0f4d40">
    <circle cx="256" cy="256" r="208" />
    <g transform="translate(256 256)">
      <use href="#tooth" transform="rotate(0) translate(0 -256)" />
      <use href="#tooth" transform="rotate(30) translate(0 -256)" />
      <use href="#tooth" transform="rotate(60) translate(0 -256)" />
      <use href="#tooth" transform="rotate(90) translate(0 -256)" />
      <use href="#tooth" transform="rotate(120) translate(0 -256)" />
      <use href="#tooth" transform="rotate(150) translate(0 -256)" />
      <use href="#tooth" transform="rotate(180) translate(0 -256)" />
      <use href="#tooth" transform="rotate(210) translate(0 -256)" />
      <use href="#tooth" transform="rotate(240) translate(0 -256)" />
      <use href="#tooth" transform="rotate(270) translate(0 -256)" />
      <use href="#tooth" transform="rotate(300) translate(0 -256)" />
      <use href="#tooth" transform="rotate(330) translate(0 -256)" />
    </g>
  </g>

  <circle cx="256" cy="256" r="188" fill="#185747" />

  <path
    d="M122 372A184 184 0 0 1 122 140"
    fill="none"
    stroke="#eceff1"
    stroke-width="24"
    stroke-linecap="butt"
  />
  <path
    d="M390 140A184 184 0 0 1 390 372"
    fill="none"
    stroke="#d8843a"
    stroke-width="24"
    stroke-linecap="butt"
  />

  <path
    d="M182 128h74c66 0 116 42 116 104s-49 104-116 104h-74v42h184v28H182v42h-32V128Zm32 28v152h42c52 0 84-30 84-76s-32-76-84-76h-42Z"
    fill="#eceff1"
  />
</svg>
